<svg
  width="16"
  height="14"
  viewBox="0 0 16 14"
  fill="none"
  xmlns="http://www.w3.org/2000/svg"
>
  <path
    d="M6.21823 0.955998L-2.8437e-07 7.20659L6.21823 13.4572C6.27439 13.5309 6.34574 13.5917 6.42745 13.6355C6.50916 13.6793 6.59932 13.705 6.69183 13.7109C6.78433 13.7168 6.87703 13.7028 6.96364 13.6697C7.05025 13.6367 7.12875 13.5854 7.19382 13.5194C7.2589 13.4534 7.30903 13.3742 7.34083 13.2871C7.37262 13.2 7.38534 13.1072 7.37812 13.0147C7.37089 12.9223 7.3439 12.8325 7.29896 12.7515C7.25402 12.6704 7.19219 12.5999 7.11765 12.5448L2.46529 7.85365L14.8435 7.85364C15.0151 7.85364 15.1797 7.78547 15.3011 7.66413C15.4224 7.54278 15.4906 7.3782 15.4906 7.20659C15.4906 7.03498 15.4224 6.87039 15.3011 6.74905C15.1797 6.6277 15.0151 6.55953 14.8435 6.55953L2.46529 6.55953L7.11765 1.86835C7.23863 1.74651 7.30626 1.58159 7.30565 1.40989C7.30505 1.23818 7.23626 1.07375 7.11441 0.952762C6.99257 0.831776 6.82765 0.764148 6.65595 0.764755C6.48424 0.765362 6.31981 0.834155 6.19882 0.955998L6.21823 0.955998Z"
    fill="#151F40"
  />
</svg>
