<svg width="216" height="132" viewBox="0 0 216 132" fill="none" xmlns="http://www.w3.org/2000/svg">
<path d="M1 0V131H216" stroke="#D9D9D9" stroke-width="1.17128"/>
<path d="M14 115H206" stroke="#D9D9D9" stroke-width="1.17128"/>
<path d="M14 98H206" stroke="#D9D9D9" stroke-width="1.17128"/>
<path d="M14 61H206" stroke="#D9D9D9" stroke-width="1.17128"/>
<path d="M14 25H206" stroke="#D9D9D9" stroke-width="1.17128"/>
<path d="M14 79H206" stroke="#D9D9D9" stroke-width="1.17128"/>
<path d="M14 44H206" stroke="#D9D9D9" stroke-width="1.17128"/>
<path d="M14 8H206" stroke="#D9D9D9" stroke-width="1.17128"/>
<path d="M14 89C14.8393 89 22.7432 83.4727 26.5902 80.7091L32.8852 68.2727L40.2295 78.6364H46.5246L52.8197 73.4545C54.918 64.8182 59.3246 47.3382 60.1639 46.5091C61.0033 45.68 64.7104 36.4909 66.459 32L73.8033 40.2909L80.0984 56.8727L88.4918 63.0909L93.7377 59.9818L100.033 64.1273L118.918 56.8727L126.262 48.5818L133.607 59.9818L138.852 66.2L146.197 68.2727L153.541 82.7818L159.836 84.8545H167.18L173.475 69.3091L180.82 64.1273L186.066 71.3818L192.361 84.8545L198.656 76.5636L206 64.1273" stroke="#EE85A8"/>
</svg>
