<svg width="13" height="13" viewBox="0 0 13 13" fill="none" xmlns="http://www.w3.org/2000/svg">
<path d="M4.72648 6.31326V12.2919C4.72648 12.3725 4.74711 12.4518 4.78639 12.5222C4.82567 12.5926 4.88231 12.6518 4.95091 12.6942C5.01952 12.7366 5.09782 12.7607 5.17837 12.7642C5.25892 12.7678 5.33905 12.7507 5.41114 12.7146L8.24811 11.2961C8.32655 11.2568 8.39251 11.1964 8.4386 11.1217C8.4847 11.0471 8.50911 10.9611 8.50912 10.8733V6.31326L12.6577 1.24345C12.6971 1.19539 12.7266 1.14004 12.7446 1.08057C12.7626 1.02111 12.7686 0.95868 12.7625 0.896858C12.7564 0.835036 12.7381 0.775031 12.7088 0.720267C12.6794 0.665504 12.6396 0.617055 12.5915 0.577687C12.5435 0.538319 12.4881 0.508803 12.4287 0.490824C12.3692 0.472845 12.3068 0.466755 12.2449 0.472903C12.1831 0.47905 12.1231 0.497313 12.0684 0.52665C12.0136 0.555988 11.9651 0.595824 11.9258 0.643885L7.67032 5.84515C7.60113 5.92972 7.56337 6.03566 7.56346 6.14493V10.5811L5.67214 11.5268V6.14493C5.67223 6.03566 5.63447 5.92972 5.56528 5.84515L1.94152 1.41651H9.45477C9.58018 1.41651 9.70044 1.36669 9.78911 1.27802C9.87779 1.18934 9.9276 1.06907 9.9276 0.943667C9.9276 0.818261 9.87779 0.697992 9.78911 0.609317C9.70044 0.520642 9.58018 0.470825 9.45477 0.470825H0.943848C0.854275 0.470765 0.766527 0.496151 0.690821 0.544026C0.615114 0.591901 0.554564 0.660297 0.516219 0.74125C0.477874 0.822203 0.463312 0.912383 0.474228 1.00129C0.485144 1.0902 0.521089 1.17418 0.577878 1.24345L4.72648 6.31326Z" fill="white"/>
</svg>
