<svg xmlns="http://www.w3.org/2000/svg" width="21" height="22" viewBox="0 0 21 22" fill="none">
  <g filter="url(#filter0_i_28_4630)">
    <path d="M16.9679 8.91133C16.9679 10.506 16.4951 12.0649 15.6091 13.3908C14.7231 14.7167 13.4639 15.7502 11.9906 16.3604C10.5173 16.9707 8.89617 17.1303 7.33213 16.8192C5.7681 16.5081 4.33144 15.7402 3.20383 14.6126C2.07623 13.485 1.30832 12.0483 0.997214 10.4843C0.686108 8.92028 0.845779 7.29911 1.45603 5.82582C2.06629 4.35254 3.09972 3.0933 4.42565 2.20734C5.75157 1.32139 7.31043 0.848511 8.90511 0.848511C9.96393 0.848511 11.0124 1.05706 11.9906 1.46226C12.9688 1.86745 13.8577 2.46135 14.6064 3.21006C15.3551 3.95876 15.949 4.8476 16.3542 5.82582C16.7594 6.80405 16.9679 7.85251 16.9679 8.91133Z" fill="white"/>
    <path d="M20.7637 19.6289L15.7184 14.5836C17.1836 12.8263 17.9149 10.5718 17.7602 8.28904C17.6055 6.00631 16.5766 3.87111 14.8877 2.32764C13.1987 0.784171 10.9797 -0.0487317 8.69234 0.0022059C6.40494 0.0531435 4.22523 0.983999 2.60668 2.60112C0.988126 4.21825 0.0553436 6.39713 0.00238447 8.68449C-0.0505747 10.9718 0.780367 13.1916 2.32234 14.8819C3.86432 16.5722 5.99861 17.6029 8.28121 17.7596C10.5638 17.9164 12.819 17.1871 14.5775 15.7234L19.6228 20.7698C19.6977 20.8447 19.7867 20.9041 19.8845 20.9446C19.9824 20.9852 20.0873 21.006 20.1933 21.006C20.2992 21.006 20.4041 20.9852 20.502 20.9446C20.5999 20.9041 20.6888 20.8447 20.7637 20.7698C20.8386 20.6948 20.898 20.6059 20.9386 20.508C20.9791 20.4102 21 20.3052 21 20.1993C21 20.0934 20.9791 19.9885 20.9386 19.8906C20.898 19.7927 20.8386 19.7038 20.7637 19.6289ZM1.64878 8.91136C1.64878 7.47615 2.07437 6.07317 2.87173 4.87984C3.66909 3.68651 4.8024 2.75642 6.12836 2.20719C7.45432 1.65796 8.91337 1.51426 10.321 1.79425C11.7286 2.07425 13.0216 2.76536 14.0365 3.78021C15.0513 4.79505 15.7424 6.08805 16.0224 7.49568C16.3024 8.90331 16.1587 10.3624 15.6095 11.6883C15.0603 13.0143 14.1302 14.1476 12.9368 14.9449C11.7435 15.7423 10.3405 16.1679 8.90532 16.1679C6.98142 16.1658 5.13693 15.4005 3.77653 14.0401C2.41613 12.6797 1.65092 10.8353 1.64878 8.91136Z" fill="white"/>
  </g>
  <defs>
    <filter id="filter0_i_28_4630" x="0" y="0" width="21" height="23.006" filterUnits="userSpaceOnUse" color-interpolation-filters="sRGB">
      <feFlood flood-opacity="0" result="BackgroundImageFix"/>
      <feBlend mode="normal" in="SourceGraphic" in2="BackgroundImageFix" result="shape"/>
      <feColorMatrix in="SourceAlpha" type="matrix" values="0 0 0 0 0 0 0 0 0 0 0 0 0 0 0 0 0 0 127 0" result="hardAlpha"/>
      <feOffset dy="2"/>
      <feGaussianBlur stdDeviation="1"/>
      <feComposite in2="hardAlpha" operator="arithmetic" k2="-1" k3="1"/>
      <feColorMatrix type="matrix" values="0 0 0 0 0 0 0 0 0 0 0 0 0 0 0 0 0 0 0.25 0"/>
      <feBlend mode="normal" in2="shape" result="effect1_innerShadow_28_4630"/>
    </filter>
  </defs>
</svg>